<?xml version="1.0" standalone="no"?>
<!DOCTYPE svg PUBLIC "-//W3C//DTD SVG 20010904//EN"
 "http://www.w3.org/TR/2001/REC-SVG-20010904/DTD/svg10.dtd">
<svg version="1.0" xmlns="http://www.w3.org/2000/svg"
 width="40.000000pt" height="40.000000pt" viewBox="0 0 40.000000 40.000000"
 preserveAspectRatio="xMidYMid meet">

<g transform="translate(0.000000,40.000000) scale(0.100000,-0.100000)"
fill="#000000" stroke="none">
<path d="M112 369 c-85 -42 -125 -154 -88 -244 l17 -39 49 49 c28 27 50 57 50
68 0 31 45 67 84 67 59 0 93 -25 44 -32 -20 -3 -23 -8 -21 -46 2 -43 1 -44
-25 -38 l-27 6 28 -15 c32 -19 35 -46 8 -98 -21 -42 -14 -47 42 -23 59 24 117
111 117 176 0 65 -58 152 -117 176 -47 20 -112 17 -161 -7z m138 -13 c6 -8 10
-25 8 -38 -2 -19 -9 -23 -38 -23 -29 0 -36 4 -38 23 -4 28 14 52 38 52 10 0
23 -7 30 -14z"/>
</g>
</svg>
